# xmcd
#
# Track frame offsets:
#	150
#	8596
#	24219
#	39653
#	63789
#	85135
#	99297
#	116071
#	141007
#	167213
#	189378
#	220501
#	233326
#	253657
#	272674
#	301973
# Disc length: 4269 seconds
# Revision: 1
# Processed by: cddbd v1.5.2PL0 Copyright (c) Steve Scherf et al.
#
# Submitted via: libkcddb 0.31
#
DISCID=bf10ab10
DTITLE=Bumba-boi da Maioba - Bumba-boi da Maioba 2008
DYEAR=2008
DGENRE=
TTITLE0=Abertura
TTITLE1=É Só no Balanço do Povo
TTITLE2=Soberano da Ilha - La Vai
TTITLE3=Orgulho do Maranhão - Chegada
TTITLE4=Maioba a Maior Orquestra de Percusão do Mundo
TTITLE5=Até Deus é Maiobeiro - Toada de Salão
TTITLE6=Teu Filho de Raiz - Toada de Salão
TTITLE7=A Terra é Boa - Toada de Salão
TTITLE8=Aviso aos Cantadores - Toada de Pique
TTITLE9=Derrubando Fortaleza - Urro do Boi
TTITLE10=Perfeição da Natureza - Toada de Salão
TTITLE11=O Bom Reduto - Toada de Salão
TTITLE12=Quem Segura em Deus não Cai - Toada de Pique
TTITLE13=Ao Amanhecer - Toada de Salão
TTITLE14=Recordar é Bom - Lembranças
TTITLE15=Para o Ano Eu Volto - Toada de Despedida
EXTD=Cantadores - Chagas, Samuel e Marquinhos
EXTT0=Beatriz Barbosa - Chagas
EXTT1=Chagas
EXTT2=Chagas
EXTT3=Chagas
EXTT4=Marcos
EXTT5=Samuel
EXTT6=Chagas
EXTT7=Chagas
EXTT8=Chagas
EXTT9=Chagas
EXTT10=Chagas
EXTT11=Chagas
EXTT12=Chagas
EXTT13=Chagas
EXTT14=Chagas
EXTT15=Chagas
PLAYORDER=
